<svg xmlns="http://www.w3.org/2000/svg" viewBox="0 0 256 256" role="img" aria-labelledby="title desc">
  <title id="title">شعار الجمهورية العربية السورية</title>
  <desc id="desc">رسم رمزي مبسط لشعار الجمهورية العربية السورية</desc>
  <defs>
    <linearGradient id="gold" x1="0" y1="0" x2="0" y2="1">
      <stop offset="0%" stop-color="#f4d27a" />
      <stop offset="100%" stop-color="#c49a3f" />
    </linearGradient>
  </defs>
  <g fill="none" fill-rule="evenodd">
    <path
      d="M128 20c10 14 16 32 16 52v42c0 19 12 34 30 42-12 9-28 14-46 14s-34-5-46-14c18-8 30-23 30-42V72c0-20 6-38 16-52Z"
      fill="url(#gold)"
      stroke="#9a7730"
      stroke-width="4"
    />
    <path
      d="M58 96c-18 18-28 42-28 68 0 8 1 16 3 24 15-7 26-18 34-31-4 20-2 39 6 56 16-12 28-30 34-51l-6-66-43 0Zm140 0-43 0-6 66c6 21 18 39 34 51 8-17 10-36 6-56 8 13 19 24 34 31 2-8 3-16 3-24 0-26-10-50-28-68Z"
      fill="url(#gold)"
      stroke="#9a7730"
      stroke-width="4"
    />
    <rect x="88" y="166" width="80" height="20" rx="6" fill="#0b6e4f" />
    <circle cx="108" cy="176" r="4" fill="#fff" />
    <circle cx="128" cy="176" r="4" fill="#fff" />
    <circle cx="148" cy="176" r="4" fill="#fff" />
    <path d="M128 170v54" stroke="#9a7730" stroke-width="8" stroke-linecap="round" />
  </g>
</svg>
